Coordinates
version=1
nRows=4
nColumns=63
inDegrees=yes

Units are S.I. units (second, meters, Newtons, ...)
If the header above contains a line with 'inDegrees', this indicates whether rotational values are in degrees (yes) or radians (no).

endheader
time	pelvis_tilt	pelvis_list	pelvis_rotation	pelvis_tx	pelvis_ty	pelvis_tz	hip_flexion_r	hip_adduction_r	hip_rotation_r	knee_angle_r	knee_angle_r_beta	ankle_angle_r	subtalar_angle_r	mtp_angle_r	hip_flexion_l	hip_adduction_l	hip_rotation_l	knee_angle_l	knee_angle_l_beta	ankle_angle_l	subtalar_angle_l	mtp_angle_l	L5_S1_Flex_Ext	L5_S1_Lat_Bending	L5_S1_axial_rotation	L4_L5_Flex_Ext	L4_L5_Lat_Bending	L4_L5_axial_rotation	L3_L4_Flex_Ext	L3_L4_Lat_Bending	L3_L4_axial_rotation	L2_L3_Flex_Ext	L2_L3_Lat_Bending	L2_L3_axial_rotation	L1_L2_Flex_Ext	L1_L2_Lat_Bending	L1_L2_axial_rotation	L1_T12_Flex_Ext	L1_T12_Lat_Bending	L1_T12_axial_rotation	Abs_r3	Abs_r2	Abs_r1	Abs_t1	Abs_t2	neck_flexion	neck_bending	neck_rotation	arm_flex_r	arm_add_r	arm_rot_r	elbow_flex_r	pro_sup_r	wrist_flex_r	wrist_dev_r	arm_flex_l	arm_add_l	arm_rot_l	elbow_flex_l	pro_sup_l	wrist_flex_l	wrist_dev_l
      4.70689655	     -2.37600922	      3.41461306	     98.02826976	      0.18409251	      0.78836564	      0.75348800	     -6.55112540	     -1.27122912	     -4.06155992	      5.96087637	      0.10403692	     29.81214077	      1.86492289	      0.00000000	     -7.00327189	      2.95876377	     14.86658148	      2.14843060	      0.03749719	     23.95938734	    -10.47785662	      0.00000000	     -0.06791965	     -0.15533249	     -0.02587905	     -0.12613359	     -0.20659222	     -0.02749649	     -0.11158520	     -0.37767542	     -0.02749649	     -0.07762537	     -0.37767542	     -0.02264417	     -0.06307019	     -0.31675402	     -0.02102673	     -0.03880929	     -0.24061003	     -0.01940929	     -0.48514329	     -1.75715223	     -0.14393154	      0.00000000	      0.00000000	      6.87536757	      2.66877273	     -1.09497936	     42.08567237	    -18.18958819	     18.15136612	     97.15641253	     72.17167464	     12.77761838	     16.79291828	     44.59675204	     -8.18921983	     25.98266035	     84.79674186	     87.55428909	     -7.56910813	     -5.28055422
      4.72413793	     -2.36895953	      3.49723537	     99.01333657	      0.18343287	      0.78864240	      0.75358860	     -6.84876210	     -1.04034077	     -4.60691493	      5.74033304	      0.10018771	     29.71086974	      1.41317906	      0.00000000	     -6.82962640	      2.80716697	     15.49986990	      2.55029353	      0.04451102	     24.35606699	    -10.04751213	      0.00000000	     -0.06888113	     -0.15774623	     -0.18853201	     -0.12791915	     -0.20980249	     -0.20031526	     -0.11316481	     -0.38354418	     -0.20031526	     -0.07872424	     -0.38354418	     -0.16496551	     -0.06396302	     -0.32167611	     -0.15318226	     -0.03935868	     -0.24434891	     -0.14139901	     -0.49201102	     -1.78445690	     -1.04855849	      0.00000000	      0.00000000	      6.56779727	      2.48674722	     -1.13057613	     41.07644134	    -18.09185197	     17.24218531	     98.60351611	     74.68367215	      9.46668754	     17.57932913	     44.52597436	     -8.56596753	     26.33180482	     85.12684003	     87.79889468	     -7.91547431	     -6.78588151
      4.74137931	     -2.37008287	      3.58598239	     99.26747972	      0.18366123	      0.78891519	      0.75429756	     -6.84409301	     -0.96847105	     -4.76136189	      5.86939080	      0.10244019	     29.82090926	      1.52549787	      0.00000000	     -6.65964315	      2.76348241	     14.86741927	      2.90240977	      0.05065661	     24.65564987	     -9.11280533	      0.00000000	     -0.09421016	     -0.15596212	     -0.23466309	     -0.17495769	     -0.20742962	     -0.24932954	     -0.15477787	     -0.37920629	     -0.24932954	     -0.10767279	     -0.37920629	     -0.20533021	     -0.08748355	     -0.31803795	     -0.19066376	     -0.05383169	     -0.24158532	     -0.17599732	     -0.67293375	     -1.76427466	     -1.30512573	      0.00000000	      0.00000000	      6.57033548	      2.20923969	     -1.20338262	     40.44578523	    -18.19605061	     16.59134284	     99.69044229	     79.53072279	      6.46435113	     16.35815419	     44.28095564	     -8.99371586	     26.47195589	     85.99149338	     87.90683521	     -8.27629406	     -7.39482248
      4.75862069	     -2.31897493	      3.75010704	     99.42609384	      0.18380041	      0.78923055	      0.75482841	     -6.88157555	     -0.85095837	     -4.84081371	      6.04072839	      0.10543060	     29.96155182	      1.47702084	      0.00000000	     -6.63437413	      2.67757914	     14.75461775	      3.12104098	      0.05447244	     24.82950939	     -9.13430178	      0.00000000	     -0.13406049	     -0.14501644	     -0.26525738	     -0.24896374	     -0.19287187	     -0.28183597	     -0.22024798	     -0.35259298	     -0.28183597	     -0.15321773	     -0.35259298	     -0.23210021	     -0.12448857	     -0.29571753	     -0.21552162	     -0.07660216	     -0.22463047	     -0.19894304	     -0.95758068	     -1.64045500	     -1.47528197	      0.00000000	      0.00000000	      6.60836282	      2.09082491	     -1.28833924	     40.16208940	    -18.33505505	     15.79997991	    100.22804603	     79.91389565	      5.88609629	     16.16517851	     43.75217448	     -9.44559032	     26.46232636	     87.20076872	     87.99836223	     -8.24363513	     -7.73896198
